# xmcd
#
# Track frame offsets:
#	150
#	17023
#	34108
#	47077
#	63818
#	83163
#	102470
#	119612
#	138994
#	155980
#	171376
#	188586
#	205651
#	234846
#	253656
#	269186
#	287851
#	304222
#
# Disc length: 4410 seconds
#
# Revision: 1
# Processed by: cddbd v1.5.2PL0 Copyright (c) Steve Scherf et al.
# Submitted via: audiograbber 1.83.01
#
DISCID=08113812
DTITLE=Jessica Mauboy - Been Waiting
DYEAR=2008
DGENRE=Vocal
TTITLE0=Running Back
TTITLE1=Been Waiting
TTITLE2=Burn
TTITLE3=Used2b
TTITLE4=Empty
TTITLE5=Because
TTITLE6=To The Floor
TTITLE7=Time After Time
TTITLE8=Back2u
TTITLE9=Up Down
TTITLE10=Let Me Be Me
TTITLE11=Breathe
TTITLE12=Been Waiting ( Lovers Remix )
TTITLE13=Do It Again
TTITLE14=Chinese Whispers
TTITLE15=That Girl
TTITLE16=Runnin'
TTITLE17=Burn ( Jason Nevins Remix )
EXTD=
EXTT0=
EXTT1=
EXTT2=
EXTT3=
EXTT4=
EXTT5=
EXTT6=
EXTT7=
EXTT8=
EXTT9=
EXTT10=
EXTT11=
EXTT12=
EXTT13=
EXTT14=
EXTT15=
EXTT16=
EXTT17=
PLAYORDER=
